<svg width="40" height="40" viewBox="0 0 40 40" fill="none" xmlns="http://www.w3.org/2000/svg">
<path d="M29.5382 16.067C29.5264 15.2612 29.3772 14.4619 29.0914 13.7082C28.5914 12.4214 27.5732 11.4038 26.2841 10.9056C25.5389 10.6257 24.7509 10.4756 23.9534 10.4586C22.9278 10.4128 22.6026 10.4 19.9989 10.4C17.3953 10.4 17.0616 10.4 16.0434 10.4586C15.2469 10.4756 14.459 10.6257 13.7137 10.9056C12.4247 11.4038 11.4054 12.4214 10.9064 13.7082C10.626 14.4523 10.4746 15.2389 10.4597 16.034C10.4139 17.059 10.4 17.3837 10.4 19.983C10.4 22.5823 10.4 22.9144 10.4597 23.932C10.4757 24.7282 10.626 25.5137 10.9064 26.2599C11.4065 27.5457 12.4247 28.5633 13.7148 29.0614C14.4569 29.351 15.2448 29.5149 16.0444 29.5404C17.0712 29.5862 17.3964 29.6 20 29.6C22.6036 29.6 22.9374 29.6 23.9556 29.5404C24.752 29.5245 25.5399 29.3744 26.2863 29.0944C27.5753 28.5952 28.5935 27.5776 29.0936 26.2918C29.374 25.5467 29.5243 24.7612 29.5403 23.9639C29.5861 22.94 29.6 22.6153 29.6 20.0149C29.5979 17.4156 29.5979 17.0856 29.5382 16.067ZM19.9925 24.8985C17.2695 24.8985 15.0635 22.6962 15.0635 19.9777C15.0635 17.2591 17.2695 15.0569 19.9925 15.0569C22.7135 15.0569 24.9215 17.2591 24.9215 19.9777C24.9215 22.6962 22.7135 24.8985 19.9925 24.8985ZM25.1177 16.0223C24.4812 16.0223 23.9684 15.5092 23.9684 14.8748C23.9684 14.2405 24.4812 13.7274 25.1177 13.7274C25.7521 13.7274 26.266 14.2405 26.266 14.8748C26.266 15.5092 25.7521 16.0223 25.1177 16.0223Z" fill="#111111"/>
<path d="M19.9941 22.982C21.6526 22.982 22.9971 21.6375 22.9971 19.979C22.9971 18.3204 21.6526 16.976 19.9941 16.976C18.3355 16.976 16.9911 18.3204 16.9911 19.979C16.9911 21.6375 18.3355 22.982 19.9941 22.982Z" fill="#111111"/>
<rect x="0.5" y="0.5" width="39" height="39" rx="9.5" stroke="#111111" stroke-opacity="0.1"/>
</svg>
